<?xml version="1.0" encoding="utf-8"?>
<!-- Generator: Adobe Illustrator 23.0.1, SVG Export Plug-In . SVG Version: 6.00 Build 0)  -->
<svg version="1.1" xmlns="http://www.w3.org/2000/svg" xmlns:xlink="http://www.w3.org/1999/xlink" x="0px" y="0px"
	 viewBox="0 0 1499.9 472" style="enable-background:new 0 0 1499.9 472;" xml:space="preserve">
<style type="text/css">
	.st0{fill:#FFFFFF;}
	.st1{fill:#252930;}
</style>
<g id="background">
</g>
<g id="shadow">
</g>
<g id="object">
	<circle class="st0" cx="236" cy="236" r="236"/>
	<g>
		<path class="st1" d="M338.7,141.3c-2.4,1.1-4,3-4.9,5.8s-1.3,7.4-1.3,13.8v125c0,6.3,0.4,10.9,1.3,13.8c0.9,2.9,2.5,4.8,4.9,5.9
			c2.4,1.1,6.3,1.7,11.6,2v5c-10.3-0.5-25.2-0.7-44.7-0.7c-20.3,0-35.2,0.2-44.8,0.7v-5c6.1-0.2,10.5-0.9,13.2-2
			c2.7-1.1,4.6-3,5.7-5.9c1-2.9,1.5-7.5,1.5-13.8V156.9l-60.8,155.5h-4.1l-71-161.8v112.7c0,12.4,0.5,21.3,1.5,26.7s3.2,9.4,6.6,12
			s9.2,4.5,17.3,5.6v5c-6.7-0.5-16.2-0.7-28.3-0.7c-8.9,0-15.8,0.2-20.9,0.7v-5c5.2-1.1,9.1-3,11.6-5.4c2.5-2.5,4.2-6.2,5-11.3
			s1.3-12.6,1.3-22.6V161c0-6.3-0.5-10.9-1.4-13.8c-0.9-2.9-2.6-4.8-5-5.9c-2.4-1.1-6.3-1.7-11.6-2v-5c5.1,0.5,12.1,0.7,20.9,0.7
			c20.3,0,37.7-0.2,52.2-0.7l47.6,107.1L283.9,135h21.9c19.4,0,34.3-0.2,44.7-0.7v5C345,139.6,341.1,140.3,338.7,141.3z"/>
	</g>
	<g>
		<path class="st0" d="M799.7,141.3c-2.4,1.1-4,3-4.9,5.8s-1.3,7.4-1.3,13.8v125c0,6.3,0.4,10.9,1.3,13.8c0.9,2.9,2.5,4.8,4.9,5.9
			c2.4,1.1,6.3,1.7,11.6,2v5c-10.3-0.5-25.2-0.7-44.7-0.7c-20.3,0-35.2,0.2-44.8,0.7v-5c6.1-0.2,10.5-0.9,13.2-2
			c2.7-1.1,4.6-3,5.7-5.9c1-2.9,1.5-7.5,1.5-13.8V156.9l-60.8,155.5h-4.1l-71-161.8v112.7c0,12.4,0.5,21.3,1.5,26.7s3.2,9.4,6.6,12
			s9.2,4.5,17.3,5.6v5c-6.7-0.5-16.2-0.7-28.3-0.7c-8.9,0-15.8,0.2-20.9,0.7v-5c5.2-1.1,9.1-3,11.6-5.4c2.5-2.5,4.2-6.2,5-11.3
			s1.3-12.6,1.3-22.6V161c0-6.3-0.5-10.9-1.4-13.8c-0.9-2.9-2.6-4.8-5-5.9c-2.4-1.1-6.3-1.7-11.6-2v-5c5.1,0.5,12.1,0.7,20.9,0.7
			c20.3,0,37.7-0.2,52.2-0.7l47.6,107.1L744.9,135h21.9c19.4,0,34.3-0.2,44.7-0.7v5C806,139.6,802.1,140.3,799.7,141.3z"/>
		<path class="st0" d="M978.5,144.8c-2.5,2.5-4.2,6.2-5,11.3s-1.3,12.6-1.3,22.6v60.8c0,24.4-3.4,42.2-10.3,53.4
			c-9.4,15.7-27.4,23.5-54.1,23.5c-20.3,0-36.1-4.1-47.4-12.2c-5.6-4-9.9-9-12.9-14.9c-3-5.9-5-12.8-6.2-20.5
			c-1.1-7.8-1.7-17.3-1.7-28.5V161c0-6.4-0.4-11-1.3-13.8s-2.5-4.8-4.9-5.8c-2.4-1.1-6.3-1.7-11.7-2v-5c9.4,0.5,24.2,0.7,44.3,0.7
			c19.8,0,34.8-0.2,45.2-0.7v5c-6.1,0.2-10.5,0.9-13.2,2c-2.7,1.1-4.6,3-5.7,5.9c-1,2.9-1.5,7.5-1.5,13.8v102.9
			c0,10.9,1.1,19.5,3.4,25.9c2.3,6.4,5.7,10.9,10.3,13.6c4.6,2.7,10.5,4.1,17.7,4.1c16,0,27.3-5.6,34-16.9c6.7-11.3,10-27.4,10-48.3
			v-58.6c0-12.4-0.5-21.3-1.5-26.7s-3.2-9.4-6.6-12s-9.2-4.4-17.3-5.6v-5c6.9,0.5,16.3,0.7,28.3,0.7c8.9,0,15.8-0.2,20.9-0.7v5
			C984.8,140.5,981,142.3,978.5,144.8z"/>
		<path class="st0" d="M1058,306.9h10.6c6.9,0,14.8-2,23.7-6c8.9-4,17-10.4,24.2-19.4c7.2-8.9,11.6-20.4,13.2-34.3h5.8
			c-0.5,6-0.7,13.7-0.7,23.1c0,17.1,0.6,31.3,1.7,42.3c-12.4-0.5-33.3-0.7-62.8-0.7c-32.7,0-56.5,0.2-71.2,0.7v-5l76.3-167.6h-12.6
			c-7.9,0-15.8,1.7-23.6,5.1c-7.9,3.4-14.9,9.2-21,17.3c-6.1,8.2-10.1,18.9-11.9,32.3h-5.8c0.5-4.3,0.7-10.4,0.7-18.2
			c0-12.5-0.6-26.6-1.7-42.3c10.4,0.5,28,0.7,52.7,0.7c36.3,0,62.5-0.2,78.9-0.7v5L1058,306.9z"/>
		<path class="st0" d="M1297.2,270.4c0,17.1,0.6,31.3,1.7,42.3c-11.4-0.5-30.6-0.7-57.7-0.7c-39.3,0-68.7,0.2-88.2,0.7v-5
			c5.4-0.2,9.3-0.9,11.8-2c2.4-1.1,4.1-3,4.9-5.9c0.9-2.9,1.3-7.5,1.3-13.8V161c0-6.3-0.5-10.9-1.4-13.8c-0.9-2.9-2.6-4.8-5-5.9
			c-2.4-1.1-6.3-1.7-11.6-2v-5c19.5,0.5,48.9,0.7,88.2,0.7c24.7,0,42.2-0.2,52.7-0.7c-1.1,15.8-1.7,29.9-1.7,42.3
			c0,7.8,0.2,13.9,0.7,18.2h-5.8c-3-19.5-8.6-33.5-16.8-42s-18.1-12.7-29.6-12.7h-3.3c-4.6,0-7.9,0.4-10,1.1
			c-2.1,0.7-3.5,2.2-4.2,4.4c-0.8,2.2-1.2,5.6-1.2,10.4v64.5h2.6c6,0,11.4-1.7,16.2-5c4.8-3.4,8.8-7.6,11.9-12.7
			c3.1-5.1,5.2-10.3,6.3-15.5h5.8c-0.7,9.8-1,18-1,24.5l0.1,11.3c0,7.2,0.5,19.2,1.6,35.8h-5.8c-1.1-6.3-3.2-12-6.3-17
			c-3.2-5-7.2-9-12.1-11.9c-4.9-2.9-10.5-4.4-16.6-4.4h-2.6v65.6c0,4.8,0.4,8.3,1.2,10.5c0.8,2.1,2.2,3.6,4.2,4.3
			c2,0.7,5.4,1.1,10,1.1h8.4c6.1,0,12.2-1.9,18.3-5.8c6.1-3.9,11.7-10.2,16.7-19.1c5-8.9,8.8-20.5,11.4-34.8h5.8
			C1297.5,253.2,1297.2,261,1297.2,270.4z"/>
		<path class="st0" d="M1490.2,302.6c1.4,1.6,2.8,2.8,4.2,3.5c1.4,0.7,3.3,1.2,5.5,1.4v5.3c-22-0.7-36.3-1-43.1-1
			c-7.2,0-21.8,0.3-43.8,1v-5.3c5.4,0,9.4-0.3,11.9-0.9c2.5-0.6,3.8-1.7,3.8-3.4c0-1.1-0.6-2.6-1.8-4.3l-42-60l-15.5,19.3
			c-8.6,10.6-12.9,20.4-12.9,29.5c0,5.7,1.9,10.4,5.6,14c3.7,3.6,8.9,5.6,15.4,6.1v5c-9.6-0.5-24.1-0.7-43.6-0.7
			c-10.7,0-18.9,0.2-24.5,0.7v-5c13.1-5.5,27.1-17.4,41.8-35.8l30.3-37.9l-57.5-82.1c-2.5-3.5-4.5-6.1-5.9-7.7
			c-1.4-1.6-2.8-2.8-4.2-3.5c-1.4-0.7-3.3-1.2-5.5-1.4v-5.3c23.3,0.7,38.5,1,45.5,1c6.4,0,19.9-0.3,40.6-1v5.3
			c-5.5,0-9.5,0.3-12,0.9c-2.5,0.6-3.8,1.7-3.8,3.4c0,1.1,0.6,2.6,1.8,4.3l36.5,51.9l14.4-17.7c8.4-9.8,12.7-18.6,12.7-26.5
			c0-4.7-1.5-8.4-4.6-11.3c-3.1-2.9-7.4-4.6-13.1-5v-5c9.6,0.5,20.8,0.7,33.6,0.7c10.7,0,18.9-0.2,24.4-0.7v5
			c-5.4,2-11.1,5.6-17.1,10.8c-6,5.3-11.6,11.1-16.9,17.6l-30,36.8l63.7,90.3C1486.8,298.4,1488.8,301,1490.2,302.6z"/>
	</g>
</g>
</svg>
